# xmcd
#
# Track frame offsets: 
#        150
#        23448
#        51425
#        74685
#
# Disc length: 1365 seconds
#
# Revision: 1
# Processed by: cddbd v1.5.2PL0 Copyright (c) Steve Scherf et al.
# Submitted via: ExactAudioCopyFreeDBPlugin 1.0
#
DISCID=32055304
DTITLE=U.N.O.BAND - NO.1
DYEAR=2005
DGENRE=JPop
TTITLE0=NO.1
TTITLE1=1224
TTITLE2=NO.1 (オリジナルカラオケ)
TTITLE3=1224 (オリジナルカラオケ)
EXTD=YEAR: 2005
EXTT0=
EXTT1=
EXTT2=
EXTT3=
PLAYORDER=
